<?xml version="1.0" encoding="UTF-8"?>
<svg width="85px" height="16px" viewBox="0 0 85 16" version="1.1" xmlns="http://www.w3.org/2000/svg" xmlns:xlink="http://www.w3.org/1999/xlink">
    <!-- Generator: Sketch 53.1 (72631) - https://sketchapp.com -->
    <title>brand/logo</title>
    <desc>Created with Sketch.</desc>
    <g id="ui" stroke="none" stroke-width="1" fill="none" fill-rule="evenodd">
        <g id="classic-link" transform="translate(-145.000000, -619.000000)">
            <g id="brand/logo" transform="translate(145.000000, 619.000000)">
                <g>
                    <path d="M23.4461538,15.0153846 L23.4461538,2.21538462 C23.4461538,2.03076923 23.5692308,1.84615385 23.8153846,1.84615385 L24.9846154,1.84615385 C25.1692308,1.84615385 25.3538462,1.96923077 25.3538462,2.21538462 L25.3538462,15.0769231 C25.3538462,15.2615385 25.2307692,15.4461538 24.984,15.4461538 L23.8153846,15.4461538 C23.6307692,15.3846154 23.4461538,15.2615385 23.4461538,15.0153846 Z M27.8769231,3.38461538 L27.8769231,2.15384615 C27.8769231,1.96923077 28,1.78461538 28.2461538,1.78461538 L29.5384615,1.78461538 C29.7230769,1.78461538 29.9076923,1.90769231 29.9076923,2.15384615 L29.9076923,3.38461538 C29.9076923,3.56923077 29.7846154,3.75384615 29.5384615,3.75384615 L28.2461538,3.75384615 C28,3.75384615 27.8769231,3.63076923 27.8769231,3.38461538 Z M27.9384615,15.0153846 L27.9384615,5.90769231 C27.9384615,5.72307692 28.1230769,5.53846154 28.3076923,5.53846154 L29.4153846,5.53846154 C29.6,5.53846154 29.7846154,5.66153846 29.7846154,5.90769231 L29.7846154,15.0769231 C29.7846154,15.2615385 29.6621538,15.4461538 29.4153846,15.4461538 L28.3076923,15.4461538 C28.1230769,15.3846154 27.9384615,15.2615385 27.9384615,15.0153846 Z M32.3076923,15.0153846 L32.3076923,5.90769231 C32.3076923,5.72307692 32.4307692,5.53846154 32.6769231,5.53846154 L33.7846154,5.53846154 C33.9692308,5.53846154 34.1538462,5.66153846 34.1538462,5.90769231 L34.1538462,6.52307692 L34.2153846,6.52307692 C34.5846154,6.03076923 35.2,5.6 36.1230769,5.35384615 L36.1846154,5.35384615 C37.6,5.16923077 38.7076923,5.47692308 39.4461538,6.27692308 C40.0615385,6.95384615 40.4313846,7.81538462 40.4313846,8.984 L40.4313846,15.0756923 C40.4313846,15.2603077 40.3083077,15.4455385 40.0615385,15.4455385 L38.9538462,15.4455385 C38.7692308,15.4455385 38.5846154,15.3230769 38.5846154,15.0756923 L38.5846154,9.47507692 C38.5846154,7.81415385 37.9070769,6.95138462 36.4923077,6.95138462 C35.8153846,6.95138462 35.2,7.136 34.7692308,7.56676923 C34.3384615,7.99753846 34.1538462,8.552 34.1538462,9.22830769 L34.1538462,15.0744615 C34.1538462,15.2590769 34.0307692,15.4436923 33.784,15.4436923 L32.6763077,15.4436923 C32.4307692,15.3846154 32.3076923,15.2615385 32.3076923,15.0153846 Z M42.5846154,15.0153846 L42.5846154,2.21538462 C42.5846154,2.03076923 42.7076923,1.84615385 42.9538462,1.84615385 L44.0615385,1.84615385 C44.2461538,1.84615385 44.4307692,1.96923077 44.4307692,2.21538462 L44.4307692,9.96923077 L44.4923077,9.96923077 L48.3692308,5.72307692 C48.3692308,5.6 48.4923077,5.53846154 48.5538462,5.53846154 L49.9692308,5.53846154 C50.2769231,5.53846154 50.4,5.90769231 50.2147692,6.09230769 L47.3846154,9.29230769 C47.2615385,9.41538462 47.2615385,9.6 47.3846154,9.72307692 L50.8307692,14.8923077 C50.9538462,15.1378462 50.8307692,15.4455385 50.5230769,15.4455385 L49.2923077,15.4455385 C49.1698462,15.4455385 49.0473846,15.3833846 48.9846154,15.3230769 L45.8461538,10.6461538 L45.7846154,10.6461538 L44.4923077,12.0615385 C44.4307692,12.1243077 44.4307692,12.1846154 44.4307692,12.3076923 L44.4307692,15.1384615 C44.4307692,15.3230769 44.3076923,15.5076923 44.0615385,15.5076923 L42.9538462,15.5076923 C42.7692308,15.3846154 42.5846154,15.2615385 42.5846154,15.0153846 Z M53.1076923,12.3076923 L53.1076923,7.13846154 L52,7.13846154 C51.8153846,7.13846154 51.6295385,7.01538462 51.6295385,6.76923077 L51.6295385,5.90769231 C51.6923077,5.72307692 51.8153846,5.53846154 52,5.53846154 L53.1692308,5.53846154 L53.1692308,3.50769231 C53.1692308,3.32307692 53.2916923,3.13846154 53.5390769,3.13846154 L54.5852308,3.13846154 C54.7698462,3.13846154 54.9544615,3.26153846 54.9544615,3.50769231 L54.9544615,5.53846154 L57.0467692,5.53846154 C57.2313846,5.53846154 57.416,5.66153846 57.416,5.90769231 L57.416,6.76923077 C57.416,6.95384615 57.2935385,7.13846154 57.0467692,7.13846154 L54.9544615,7.13846154 L54.9544615,12.1230769 C54.9544615,12.6763077 55.016,13.0461538 55.2006154,13.2916923 C55.3846154,13.5384615 55.6923077,13.6615385 56.1846154,13.6615385 L56.6153846,13.6615385 C56.8,13.6615385 56.9846154,13.7846154 56.9846154,14.0307692 L56.9846154,15.0769231 C56.9846154,15.2615385 56.8621538,15.4461538 56.6153846,15.4461538 L56.0615385,15.4461538 C55.016,15.4461538 54.2781538,15.2012308 53.7852308,14.7083077 C53.3538462,14.0923077 53.1076923,13.3538462 53.1076923,12.3076923 Z M59.3846154,15.0153846 L59.3846154,5.90769231 C59.3846154,5.72307692 59.5076923,5.53846154 59.6923077,5.53846154 L60.7384615,5.53846154 C60.9230769,5.53846154 61.1076923,5.66153846 61.1076923,5.90769231 L61.1076923,6.64615385 L61.1692308,6.64615385 C61.3544615,6.27692308 61.6621538,5.96923077 62.0301538,5.72307692 C62.4,5.47692308 62.7686154,5.41538462 63.1993846,5.41538462 C63.384,5.41538462 63.6289231,5.41538462 63.8147692,5.47692308 C64,5.53846154 64.0615385,5.72307692 64.0615385,5.84615385 L63.8769231,6.95384615 C63.8153846,7.13846154 63.6313846,7.26153846 63.4461538,7.2 C63.3236923,7.2 63.2012308,7.13846154 63.016,7.13846154 C61.8473846,7.13846154 61.232,7.93846154 61.232,9.53846154 L61.232,14.9538462 C61.232,15.1384615 61.1089231,15.3236923 60.8621538,15.3236923 L59.6923077,15.3236923 C59.5076923,15.3846154 59.3846154,15.2615385 59.3846154,15.0153846 Z M72.3692308,12.1846154 L73.1698462,12.8 C73.2923077,12.9230769 73.3550769,13.1076923 73.232,13.2307692 C72.8621538,13.7846154 72.3710769,14.2769231 71.8166154,14.7076923 C71.1384615,15.1378462 70.2781538,15.3846154 69.3550769,15.3846154 C68.0012308,15.3846154 66.8935385,14.8923077 66.032,13.9692308 C65.1704615,13.0461538 64.7396923,11.7532308 64.7396923,10.2147692 C64.7396923,8.61415385 65.1698462,7.38338462 66.032,6.46030769 C66.8941538,5.53723077 67.9396923,5.04492308 69.2941538,5.04492308 C70.5870769,5.04492308 71.6935385,5.53723077 72.4935385,6.46030769 C73.2941538,7.38338462 73.7243077,8.67630769 73.7243077,10.2756923 L73.7243077,10.4615385 C73.7243077,10.6461538 73.6018462,10.8307692 73.3550769,10.8307692 L66.9550769,10.8307692 C66.7704615,10.8307692 66.5858462,11.016 66.5858462,11.2012308 C66.6473846,11.8781538 66.8935385,12.4935385 67.2627692,12.9846154 C67.7556923,13.5384615 68.3710769,13.8461538 69.232,13.8461538 C69.6627692,13.8461538 70.032,13.7846154 70.3396923,13.6615385 C70.6473846,13.5384615 70.9550769,13.3538462 71.1403077,13.1692308 C71.3858462,12.9230769 71.5101538,12.7384615 71.632,12.6153846 C71.6947692,12.5538462 71.7556923,12.4307692 71.8178462,12.3692308 C71.9384615,12.1230769 72.1846154,12.0615385 72.3692308,12.1846154 Z M66.5846154,9.29230769 L71.8769231,9.29230769 C71.8153846,8.55446154 71.6313846,7.87692308 71.2,7.38461538 C70.7692308,6.83076923 70.0910769,6.58461538 69.2307692,6.58461538 C68.4307692,6.58461538 67.7538462,6.89230769 67.3218462,7.44615385 C66.8307692,8 66.5846154,8.61538462 66.5846154,9.29230769 Z M83.0769231,12.1846154 L83.8769231,12.8 C84,12.9230769 84.0615385,13.1076923 83.9390769,13.2307692 C83.5692308,13.7846154 83.0781538,14.2769231 82.5230769,14.7076923 C81.8461538,15.1378462 80.9846154,15.3846154 80.0615385,15.3846154 C78.7083077,15.3846154 77.6,14.8923077 76.7396923,13.9692308 C75.8781538,13.0461538 75.4461538,11.7532308 75.4461538,10.2147692 C75.4461538,8.61415385 75.8769231,7.38338462 76.7396923,6.46030769 C77.6,5.53723077 78.6473846,5.04492308 80.0012308,5.04492308 C81.2941538,5.04492308 82.4006154,5.53723077 83.2012308,6.46030769 C84.0012308,7.38338462 84.432,8.67630769 84.432,10.2756923 L84.432,10.4615385 C84.432,10.6461538 84.3089231,10.8307692 84.0615385,10.8307692 L77.6615385,10.8307692 C77.4756923,10.8307692 77.2916923,11.016 77.2916923,11.2012308 C77.3538462,11.8781538 77.5993846,12.4935385 77.9692308,12.9846154 C78.4615385,13.5384615 79.0769231,13.8461538 79.9372308,13.8461538 C80.3686154,13.8461538 80.7384615,13.7846154 81.0461538,13.6615385 C81.3538462,13.5384615 81.6615385,13.3538462 81.8461538,13.1692308 C82.0910769,12.9230769 82.2153846,12.7384615 82.3384615,12.6153846 C82.4006154,12.5538462 82.4615385,12.4307692 82.5230769,12.3692308 C82.6461538,12.1230769 82.8923077,12.0615385 83.0769231,12.1846154 Z M77.2923077,9.29230769 L82.5858462,9.29230769 C82.5230769,8.55446154 82.3396923,7.87692308 81.9076923,7.38461538 C81.4775385,6.83076923 80.8,6.58461538 79.9390769,6.58461538 C79.1384615,6.58461538 78.4627692,6.89230769 78.0307692,7.44615385 C77.5384615,8 77.2923077,8.61538462 77.2923077,9.29230769 Z" id="Combined-Shape" fill="#161616" fill-rule="nonzero"></path>
                    <path d="M7.38461538,0.430769231 C7.07692308,-0.123076923 6.27692308,-0.123076923 5.96923077,0.430769231 L0.676923077,10.0307692 C0.430769231,10.5230769 0.8,11.0769231 1.35384615,11.0769231 L4.92307692,11.0769231 L4.92307692,14.7076923 C4.92307692,15.0769231 5.23076923,15.3846154 5.6,15.3846154 L7.69230769,15.3846154 C8.06153846,15.3846154 8.36923077,15.0769231 8.36923077,14.7076923 L8.36923077,11.0769231 L7.38461538,11.0769231 C6.95384615,11.0769231 6.64615385,10.7692308 6.58461538,10.4 C6.58461538,10.2769231 6.58461538,10.1538462 6.64615385,10.0295385 L9.6,4.67569231 L7.38461538,0.430769231 L7.38461538,0.430769231 Z" id="Shape" fill="#39E09B" fill-rule="nonzero"></path>
                    <path d="M12.0615385,0.430769231 C12.3692308,-0.123076923 13.1692308,-0.123076923 13.4769231,0.430769231 L18.7692308,10.0307692 C19.0153846,10.5230769 18.6461538,11.0769231 18.0923077,11.0769231 L14.5846154,11.0769231 L14.5846154,14.7076923 C14.5846154,15.0769231 14.2769231,15.3846154 13.9070769,15.3846154 L11.6923077,15.3846154 C11.3230769,15.3846154 11.0153846,15.0769231 11.0153846,14.7076923 L11.0153846,11.0769231 L12,11.0769231 C12.4307692,11.0769231 12.7384615,10.7692308 12.8,10.4 C12.8,10.2769231 12.8,10.1538462 12.7384615,10.0295385 L9.78461538,4.67692308 L12.0615385,0.430769231 L12.0615385,0.430769231 Z" id="Shape" fill="#28BF7B" fill-rule="nonzero"></path>
                </g>
            </g>
        </g>
    </g>
</svg>