<?xml version="1.0" encoding="UTF-8"?>
<svg width="73px" height="16px" viewBox="0 0 73 16" version="1.1" xmlns="http://www.w3.org/2000/svg" xmlns:xlink="http://www.w3.org/1999/xlink">
    <!-- Generator: Sketch 53.1 (72631) - https://sketchapp.com -->
    <title>icon/by-songkick-wordmark</title>
    <desc>Created with Sketch.</desc>
    <g id="symbols" stroke="none" stroke-width="1" fill="none" fill-rule="evenodd">
        <g id="shows-button" transform="translate(-127.000000, -352.000000)" fill="#455A64">
            <g id="icon/by-songkick-wordmark">
                <g transform="translate(127.000000, 352.000000)">
                    <path d="M51.8077881,9.90881311 C51.995169,9.90881311 51.994887,9.90961016 52.2317382,9.90961016 L52.2317382,12.0030613 L51.5800357,12.0046553 C50.2273698,12.0046553 49.4123891,11.7593665 48.8009853,10.8311507 C48.4218923,10.2294947 47.1734352,8.2774637 47.1734352,8.2774637 L47.1734352,11.9945293 L44.9440804,11.9945293 L44.9440804,0.284299916 L47.1734352,0.284299916 L47.1734352,6.38351698 L49.6122718,3.00257555 L52.2801439,3.00257555 L49.2082299,7.26325827 C49.2082299,7.26325827 49.9145981,8.38666715 50.3360552,9.0543869 C50.7683943,9.72610995 51.181817,9.90881311 51.8077881,9.90881311 Z M72.2284773,9.6245132 C72.4158582,9.6245132 72.4156399,9.62531025 72.6524273,9.62531025 L72.6524273,11.7187613 L72.0007794,11.7203554 C70.6479862,11.7203554 69.8330692,11.4750666 69.2218201,10.5468508 C68.8425815,9.94519475 67.5939787,7.99316379 67.5939787,7.99316379 L67.5939787,11.7102294 L65.3647696,11.7102294 L65.3647696,0 L67.5939787,0 L67.5939787,6.09921706 L70.032961,2.71827564 L72.7008331,2.71827564 L69.6289191,6.97895835 C69.6289191,6.97895835 70.3352873,8.10236724 70.7568899,8.77008698 C71.18922,9.44181003 71.6025062,9.6245132 72.2284773,9.6245132 Z M17.1094249,12.0237969 C15.7210825,12.0237969 14.5872795,11.7702297 13.6704376,10.8321777 L15.097095,9.41204377 C15.5683134,9.88106523 16.3961689,10.0459346 17.1220085,10.0459346 C18.000972,10.0459346 18.4213645,9.7545624 18.4213645,9.23464817 C18.4213645,9.01892222 18.3707478,8.84099224 18.2431551,8.70091256 C18.1286375,8.58691781 17.9372804,8.49768563 17.6443441,8.4598625 L16.549211,8.30805366 C15.7465956,8.19379626 15.1352737,7.92746735 14.7276013,7.50904885 C14.3069905,7.07810415 14.103623,6.4695193 14.103623,5.69631864 C14.103623,4.04793251 15.3518709,2.84299916 17.4150176,2.84299916 C18.7143008,2.84299916 19.6951983,3.14742292 20.4720822,3.92088624 L19.0710106,5.31546062 C18.497567,4.74495251 17.7461325,4.78303831 17.351335,4.78303831 C16.5744511,4.78303831 16.2562019,5.22702548 16.2562019,5.61988438 C16.2562019,5.73414178 16.2943077,5.89874852 16.4345477,6.03830288 C16.549211,6.15256029 16.7397856,6.26655503 17.0587445,6.30464083 L18.153732,6.4569931 C18.9689947,6.57071612 19.5548764,6.82428333 19.9370902,7.20488775 C20.4211107,7.67391826 20.6118946,8.34560509 20.6118946,9.18405429 C20.6118946,11.0226158 19.0201028,12.0237969 17.1094249,12.0237969 Z M27.3686299,11.0095553 C26.7061272,11.6690238 25.9416722,12.0237969 24.8336825,12.0237969 C23.7254744,12.0237969 22.9612469,11.6690238 22.2991718,11.0095553 C21.3437145,10.0587235 21.3819569,8.79013569 21.3819569,7.43287725 C21.3819569,6.07638868 21.3437145,4.80833525 22.2991718,3.8575035 C22.9612469,3.19803493 23.7254744,2.84299916 24.8336825,2.84299916 C25.9416722,2.84299916 26.7061272,3.19803493 27.3686299,3.8575035 C28.3236504,4.80833525 28.2855445,6.07638868 28.2855445,7.43287725 C28.2855445,8.79013569 28.3236504,10.0587235 27.3686299,11.0095553 Z M24.7464301,4.83309857 C24.3388306,4.83309857 24.0203721,5.01074778 23.8550376,5.22622919 C23.6514425,5.49230449 23.5237771,5.79672825 23.5237771,7.44485171 C23.5237771,9.09481381 23.6514425,9.38619511 23.8550376,9.65254211 C24.0203721,9.86800541 24.3388306,10.0579091 24.7464301,10.0579091 C25.1541024,10.0579091 25.472488,9.86800541 25.6381228,9.65254211 C25.8416997,9.38619511 25.9690921,9.09481381 25.9690921,7.44485171 C25.9690921,5.79672825 25.8416997,5.49230449 25.6381228,5.22622919 C25.472488,5.01074778 25.1541024,4.83309857 24.7464301,4.83309857 Z M61.0919543,12.1662095 C60.0348542,12.1662095 59.2323845,11.8111738 58.5700182,11.1517052 C57.6156346,10.2011361 57.6536676,8.93202298 57.6536676,7.57528986 C57.6536676,6.21801332 57.6156346,4.95048521 58.5700182,3.99991612 C59.2323845,3.34045659 60.0348542,2.98514912 61.0919543,2.98514912 C62.8118392,2.98514912 64.1999813,3.93627071 64.5310963,5.92690374 L62.2641453,5.92690374 C62.1239598,5.41952476 61.8438165,4.96328312 61.1048201,4.96328312 C60.6971477,4.96328312 60.3917734,5.12815253 60.2258565,5.34361582 C60.0221341,5.60995378 59.8821671,5.92690374 59.8821671,7.57528986 C59.8821671,9.22445493 60.0221341,9.54167659 60.2258565,9.80775188 C60.3917734,10.023496 60.6971477,10.1883473 61.1048201,10.1883473 C61.8438165,10.1883473 62.1239598,9.73184294 62.2641453,9.22445493 L64.5310963,9.22445493 C64.1999813,11.2148434 62.8118392,12.1662095 61.0919543,12.1662095 Z M41.5658116,12.6131985 L41.5658116,11.7515717 C41.1663191,11.9425532 40.796325,12.0240505 40.3860231,12.0240505 C39.3288593,12.0240505 38.5264533,11.6690148 37.8645874,11.0095553 C36.9088573,10.0589771 36.9473815,8.78986397 36.9473815,7.43313085 C36.9473815,6.07585429 36.9088573,4.80833525 37.8645874,3.85776616 C38.5264533,3.19829758 39.3288593,2.84299916 40.3860231,2.84299916 C41.1892027,2.84299916 41.9949481,3.08136828 42.6224113,3.55572447 C43.3258586,4.08787504 43.8065398,4.91247569 43.8065398,5.95200524 L43.8144285,12.6172018 C43.8144285,14.8320927 42.6045048,15.9858797 40.3860231,16 L39.3974553,15.996531 L39.3974553,14.0170747 L40.2079594,14.011749 C40.7411589,14.011749 41.5658116,13.8016114 41.5658116,12.6131985 Z M40.4547981,10.0581627 C41.1810017,10.0581627 41.4634834,9.61683838 41.6061527,9.12038248 L41.6061527,5.77114147 C41.4634834,5.27387947 41.1810017,4.83309857 40.4547981,4.83309857 C40.0470621,4.83309857 39.7414603,4.99794987 39.5758437,5.21343128 C39.3719665,5.47976924 39.2319995,5.7967192 39.2319995,7.44510532 C39.2319995,9.09427037 39.3719665,9.41149205 39.5758437,9.67756734 C39.7414603,9.89329329 40.0470621,10.0581627 40.4547981,10.0581627 Z M35.9975627,6.83491656 L35.9919488,11.9468102 L33.7640863,11.9433412 L33.7682171,6.83997957 C33.7682171,5.65050699 33.6407609,5.5112153 33.4369657,5.24512189 C33.2716221,5.02965859 32.9532364,4.82110599 32.5454914,4.82110599 C32.1376825,4.82110599 31.819579,5.02965859 31.6539532,5.24512189 C31.4499305,5.5112153 31.3227019,5.68059522 31.3227019,6.83439124 L31.3204271,11.9470728 L29.093056,11.9476072 L29.0936292,6.83439124 C29.0936292,5.97172291 29.0556053,4.80831713 30.0108259,3.85748539 C30.6730557,3.1980168 31.4374925,2.84299916 32.5454914,2.84299916 C33.6539815,2.84299916 34.4181452,3.1980168 35.0802204,3.85748539 C36.0344584,4.80699477 35.9975627,5.91363867 35.9975627,6.83491656 Z M55.3046976,1.89856733 L53.0837957,1.89485385 L53.0840869,0.284299916 L55.3046976,0.284571634 L55.3046976,1.89856733 Z M52.9409937,2.98514912 L55.2075261,2.98648054 L55.207881,8.50058919 C55.2114841,9.42871438 55.8411038,9.88951182 56.5813104,9.88951182 L56.8432016,9.8900462 L56.8432016,11.9877542 L56.3721741,11.9928172 C54.1099819,11.978697 52.9439144,10.7449977 52.9439144,8.57511237 L52.9409937,2.98514912 Z M1.57410669,4.39379793 L2.23085319,4.39379793 L1.59495579,7.3927356 L1.61580488,7.3927356 C1.80344768,7.06067164 2.05537172,6.79433266 2.37158458,6.59371068 C2.68779744,6.39308871 3.05439037,6.29277922 3.47137436,6.29277922 C3.81886101,6.29277922 4.11943247,6.34985186 4.37309773,6.46399885 C4.62676299,6.57814583 4.83872667,6.73379848 5.00899513,6.93096146 C5.17926359,7.12812444 5.30609432,7.36333288 5.38949112,7.63659385 C5.47288792,7.90985482 5.51458569,8.20559485 5.51458569,8.52382281 C5.51458569,8.93198477 5.45203903,9.3401406 5.32694383,9.74830255 C5.20184864,10.1564645 5.01942088,10.523113 4.77965508,10.8482589 C4.53988929,11.1734049 4.24279265,11.4380144 3.88835626,11.6420954 C3.53391987,11.8461763 3.12736658,11.9482153 2.66868419,11.9482153 C2.2100018,11.9482153 1.81734777,11.8306111 1.49071031,11.5953991 C1.16407285,11.3601871 0.955583983,11.0212103 0.865237452,10.5784583 L0.844388357,10.5784583 L0.583774667,11.802938 L-5.68434189e-14,11.802938 L1.57410669,4.39379793 Z M2.58528781,11.4086141 C2.9605734,11.4086141 3.28894337,11.3186814 3.57040756,11.1388134 C3.85187175,10.9589455 4.08815914,10.7289254 4.2792768,10.4487465 C4.47039446,10.1685675 4.61459926,9.85553274 4.71189552,9.50963277 C4.80919179,9.16373281 4.85783919,8.82821488 4.85783919,8.50306892 C4.85783919,8.00497298 4.73622068,7.60373504 4.49298002,7.29934308 C4.24973936,6.99495111 3.85708533,6.84275741 3.31500614,6.84275741 C2.95362002,6.84275741 2.6356745,6.93960795 2.36116004,7.13331192 C2.08664558,7.3270159 1.85730782,7.56914224 1.67313989,7.85969821 C1.48897196,8.15025418 1.34997939,8.46674789 1.25615799,8.80918886 C1.16233659,9.15162982 1.1154266,9.47504143 1.1154266,9.77943339 C1.1154266,10.0077274 1.14496252,10.2204527 1.20403525,10.4176156 C1.26310798,10.6147786 1.35345316,10.7859965 1.47507349,10.9312745 C1.59669382,11.0765525 1.74958565,11.1924272 1.93375358,11.2789022 C2.11792151,11.3653772 2.33509742,11.4086141 2.58528781,11.4086141 Z M5.65010481,13.1934489 C5.8377476,13.2142029 6.02191277,13.2245798 6.20260583,13.2245798 C6.40414809,13.2245798 6.574414,13.1623187 6.71340867,13.0377947 C6.85240333,12.9132707 6.96359739,12.7818307 7.04699419,12.6434708 L7.53694793,11.802938 L6.5466159,6.44843343 L7.23463605,6.44843343 L8.00605257,10.9935362 L8.02690167,10.9935362 L10.507944,6.44843343 L11.2168132,6.44843343 L7.39100426,13.0585486 C7.11301493,13.5358906 6.67866313,13.774558 6.08793581,13.774558 C5.99758928,13.774558 5.90550669,13.7676401 5.8116853,13.7538041 C5.7178639,13.7399681 5.6223065,13.7295912 5.52501024,13.7226732 L5.65010481,13.1934489 Z"></path>
                </g>
            </g>
        </g>
    </g>
</svg>