<?xml version="1.0" encoding="UTF-8"?>
<svg width="24px" height="24px" viewBox="0 0 24 24" version="1.1" xmlns="http://www.w3.org/2000/svg" xmlns:xlink="http://www.w3.org/1999/xlink">
    <!-- Generator: Sketch 53.1 (72631) - https://sketchapp.com -->
    <title>icon/social/spotify</title>
    <desc>Created with Sketch.</desc>
    <g id="symbols" stroke="none" stroke-width="1" fill="none" fill-rule="evenodd">
        <g id="music-button" transform="translate(-16.000000, -204.000000)">
            <g id="apple">
                <g transform="translate(16.000000, 202.000000)">
                    <g id="icon/social/apple-music" transform="translate(0.000000, 2.000000)">
                        <rect id="container" x="0" y="0" width="24" height="24"></rect>
                        <path d="M23.5253353,3.19827034 C23.2921103,2.60565836 22.7537143,1.77133289 21.9903764,1.18351267 C21.5495968,0.844114454 21.0233858,0.51963939 20.3006415,0.305444749 C19.5301158,0.0771483831 18.5811287,0 17.4000119,0 L6.60005648,0 C5.41893968,0 4.46995264,0.0771483831 3.69942696,0.305444749 C2.97661417,0.51963939 2.45047163,0.844114454 2.00969202,1.18351267 C1.24635409,1.77133289 0.707958155,2.60565836 0.474733088,3.19827034 C0.00479187032,4.39218818 0,5.74690594 0,6.59998806 L0,17.400012 C0,18.2530941 0.00479187032,19.6078119 0.474733088,20.8017297 C0.707958155,21.3943416 1.24635409,22.2286671 2.00969202,22.8164873 C2.45047163,23.1558855 2.97661417,23.4803606 3.69942696,23.6945553 C4.46995264,23.9228515 5.41893968,24 6.60005648,24 L17.4000119,24 C18.5811287,24 19.5301158,23.9228516 20.3006415,23.6945553 C21.0233858,23.4803606 21.5495968,23.1558855 21.9903764,22.8164873 C22.7537143,22.2286671 23.2921103,21.3943416 23.5253353,20.8017297 C23.9952765,19.6078118 24,18.2530941 24,17.400012 L24,6.59998806 C24,5.74690594 23.9952765,4.39218818 23.5253353,3.19827034 Z M17.5080334,16.5069524 C17.4460134,16.8022659 17.3328579,17.0801234 17.1584355,17.3303252 C16.9845606,17.579774 16.7616038,17.7841796 16.5018184,17.9375865 C16.2387471,18.0929102 15.9628748,18.1812852 15.6682459,18.2407038 C15.1152007,18.3522165 14.7367149,18.3774078 14.3812298,18.3058727 C14.0382719,18.2369389 13.7476134,18.0792877 13.5152783,17.8661884 C13.1708828,17.550407 12.9562091,17.1237975 12.9093176,16.6779524 C12.8543485,16.155438 13.0283602,15.5972586 13.4206739,15.1860514 C13.6186448,14.9786338 13.8673406,14.8144795 14.1992773,14.6856478 C14.5466847,14.5508606 14.9300993,14.4703579 15.5194255,14.3515206 C15.6746122,14.3202368 15.8298674,14.2889531 15.9851226,14.2576008 C16.1893229,14.216528 16.3643615,14.1642286 16.505515,13.991723 C16.6477639,13.8179165 16.6500228,13.6096775 16.6500228,13.4000009 L16.6501595,8.11098787 C16.6501595,7.7064893 16.4687546,7.59627729 16.082465,7.67048214 C15.8063873,7.72435599 9.8769127,8.92019047 9.8769127,8.92019047 C9.5424433,9.00096688 9.4249066,9.11028905 9.4249066,9.5252612 L9.42504354,17.2750137 C9.42504354,17.578884 9.40916201,17.8484584 9.34522539,18.1528079 C9.28313699,18.4481897 9.16998145,18.7260472 8.99555894,18.976249 C8.82168409,19.2256978 8.59872725,19.4301035 8.33894182,19.5834419 C8.07593897,19.7387655 7.79999823,19.83159 7.50536937,19.8910087 C6.95232417,20.0025214 6.57390672,20.0277127 6.21835319,19.9561776 C5.87546378,19.8873122 5.58480524,19.7252116 5.35240172,19.5121121 C5.0080748,19.1963307 4.80743411,18.7697213 4.76054265,18.3238761 C4.70557358,17.8013617 4.86548365,17.2431823 5.25786577,16.8319752 C5.45583669,16.624489 5.70446405,16.4604033 6.03640063,16.3315716 C6.38387656,16.1967843 6.7672226,16.1162816 7.35654885,15.9974443 C7.51173558,15.9661605 7.66705924,15.9348768 7.82224597,15.9035246 C8.02644626,15.8623834 8.20155326,15.8101524 8.34263837,15.6376467 C8.48386032,15.4651409 8.50001562,15.2583394 8.50001562,15.0500319 C8.50001562,13.4101319 8.50001562,6.1249812 8.50001562,6.1249812 C8.50001562,6.00470632 8.51048921,5.92468282 8.51658164,5.88443156 C8.54512728,5.69659192 8.62056427,5.53544971 8.75658374,5.42126726 C8.86960234,5.3263206 9.01506861,5.26094648 9.20126527,5.22131118 L9.20400345,5.22076352 L16.3372533,3.78157268 C16.3991363,3.76897699 16.9146683,3.67745311 16.9726494,3.67238746 C17.3581861,3.63911848 17.5747082,3.89226382 17.5747082,4.30312871 L17.5750505,15.6249826 C17.5750505,15.9288528 17.57197,16.2025345 17.5080334,16.5069524 Z" fill="#455A64" fill-rule="evenodd"></path>
                    </g>
                </g>
            </g>
        </g>
    </g>
</svg>