<?xml version="1.0" encoding="UTF-8"?>
<svg width="24px" height="14px" viewBox="0 0 24 14" version="1.1" xmlns="http://www.w3.org/2000/svg" xmlns:xlink="http://www.w3.org/1999/xlink">
    <!-- Generator: Sketch 53.1 (72631) - https://sketchapp.com -->
    <title>icon/social/soundcloud</title>
    <desc>Created with Sketch.</desc>
    <g id="symbols" stroke="none" stroke-width="1" fill="none" fill-rule="evenodd">
        <g id="music-button" transform="translate(-16.000000, -257.000000)">
            <g id="soundcloud">
                <g transform="translate(16.000000, 250.000000)">
                    <g id="icon/social/soundcloud" transform="translate(0.000000, 2.000000)">
                        <rect id="container" x="0" y="0" width="24" height="24"></rect>
                        <path d="M0,16.0763042 C0,16.3783321 0.107972446,16.606698 0.323871568,16.7614948 C0.539793575,16.9162684 0.770590973,16.9709927 1.01628664,16.925714 C1.24708404,16.8804122 1.40901983,16.797351 1.50211688,16.6765538 C1.59516817,16.5557566 1.6417167,16.3556579 1.6417167,16.0763042 L1.6417167,12.7919195 C1.6417167,12.5578444 1.5616871,12.3596488 1.40160502,12.1973326 C1.24154582,12.0349932 1.04610608,11.9538352 0.815285798,11.9538352 C0.591926096,11.9538352 0.400216647,12.0349932 0.240134565,12.1973326 C0.0800524834,12.3596488 0,12.5578444 0,12.7919195 L0,16.0763042 L0,16.0763042 Z M2.56863658,17.4806618 C2.56863658,17.6996517 2.64495877,17.8638477 2.79758027,17.9733427 C2.95022466,18.0828377 3.1456644,18.1375619 3.38389949,18.1375619 C3.62959516,18.1375619 3.8287423,18.0828145 3.98138669,17.9733427 C4.13400819,17.8638709 4.21033039,17.6996517 4.21033039,17.4806618 L4.21033039,9.82464784 C4.21033039,9.59813855 4.1302779,9.40370261 3.97021871,9.24138642 C3.81013662,9.07907024 3.61469689,8.99788894 3.38389949,8.99788894 C3.16053979,8.99788894 2.96880745,9.07907024 2.80874826,9.24138642 C2.64866617,9.40372582 2.56863658,9.59813855 2.56863658,9.82464784 L2.56863658,17.4806618 L2.56863658,17.4806618 Z M5.12610517,17.8430766 C5.12610517,18.0620434 5.20428106,18.2262626 5.36063285,18.3357576 C5.51698464,18.4452293 5.71800838,18.4999768 5.96372693,18.4999768 C6.20196203,18.4999768 6.39740177,18.4452293 6.55002327,18.3357576 C6.70266765,18.2262626 6.77898985,18.0620434 6.77898985,17.8430766 L6.77898985,10.8552651 C6.77898985,10.6212132 6.69893736,10.4211146 6.53887817,10.2550155 C6.37879609,10.0889164 6.18708664,10.0058785 5.96372693,10.0058785 C5.73290665,10.0058785 5.53561321,10.0889164 5.37182372,10.2550155 C5.20803424,10.4211146 5.12612805,10.6212132 5.12612805,10.8552651 L5.12612805,17.8430766 L5.12610517,17.8430766 Z M7.69474174,17.877053 C7.69474174,18.2923355 7.97021108,18.4999768 8.52117264,18.4999768 C9.07211131,18.4999768 9.34758065,18.2923355 9.34758065,17.877053 L9.34758065,6.55158863 C9.34758065,5.91736262 9.1577249,5.55873065 8.77801341,5.47566951 C8.53231774,5.41525929 8.29032947,5.48699497 8.05209438,5.69085333 C7.8138364,5.89471169 7.69471886,6.18160798 7.69471886,6.55158863 L7.69471886,17.877053 L7.69474174,17.877053 Z M10.3080731,18.2054915 L10.3080731,5.88338622 C10.3080731,5.49077786 10.4234604,5.256726 10.6542807,5.18120743 C11.1531097,5.06041021 11.6482314,5 12.1396227,5 C13.2787343,5 14.3397158,5.27181115 15.3224756,5.81543344 C16.3052583,6.35905573 17.1000618,7.10087365 17.7068404,8.0408872 C18.3136419,8.98092395 18.6654334,10.0171807 18.762215,11.1497504 C19.2163721,10.9534346 19.7003028,10.8552883 20.2140302,10.8552883 C21.2563831,10.8552883 22.1479682,11.2290286 22.8887626,11.9765093 C23.6295799,12.7240131 24,13.6224845 24,14.671993 C24,15.7290441 23.6295799,16.6312984 22.8887626,17.378779 C22.1479682,18.1262597 21.2601134,18.5 20.2251981,18.5 L10.5090511,18.4886745 C10.4420203,18.4660236 10.3917644,18.4244814 10.3582604,18.3640944 C10.3247565,18.3037074 10.3080731,18.2507934 10.3080731,18.2054915 L10.3080731,18.2054915 L10.3080731,18.2054915 Z" fill="#455A64" fill-rule="evenodd"></path>
                    </g>
                </g>
            </g>
        </g>
    </g>
</svg>