<?xml version="1.0" encoding="UTF-8"?>
<svg width="24px" height="24px" viewBox="0 0 24 24" version="1.1" xmlns="http://www.w3.org/2000/svg" xmlns:xlink="http://www.w3.org/1999/xlink">
    <!-- Generator: Sketch 53.1 (72631) - https://sketchapp.com -->
    <title>icon/social/spotify</title>
    <desc>Created with Sketch.</desc>
    <g id="symbols" stroke="none" stroke-width="1" fill="none" fill-rule="evenodd">
        <g id="music-button" transform="translate(-16.000000, -156.000000)">
            <g id="spotify">
                <g transform="translate(16.000000, 154.000000)">
                    <g id="icon/social/spotify" transform="translate(0.000000, 2.000000)">
                        <rect id="container" x="0" y="0" width="24" height="24"></rect>
                        <path d="M19.08,10.68 C15.24,8.4 8.82,8.16 5.16,9.3 C4.56,9.48 3.96,9.12 3.78,8.58 C3.6,7.98 3.96,7.38 4.5,7.2 C8.76,5.94 15.78,6.18 20.22,8.82 C20.76,9.12 20.94,9.84 20.64,10.38 C20.34,10.8 19.62,10.98 19.08,10.68 M18.96,14.04 C18.66,14.46 18.12,14.64 17.7,14.34 C14.46,12.36 9.54,11.76 5.76,12.96 C5.28,13.08 4.74,12.84 4.62,12.36 C4.5,11.88 4.74,11.34 5.22,11.22 C9.6,9.9 15,10.56 18.72,12.84 C19.08,13.02 19.26,13.62 18.96,14.04 M17.52,17.34 C17.28,17.7 16.86,17.82 16.5,17.58 C13.68,15.84 10.14,15.48 5.94,16.44 C5.52,16.56 5.16,16.26 5.04,15.9 C4.92,15.48 5.22,15.12 5.58,15 C10.14,13.98 14.1,14.4 17.22,16.32 C17.64,16.5 17.7,16.98 17.52,17.34 M12,0 C5.4,0 0,5.4 0,12 C0,18.6 5.4,24 12,24 C18.6,24 24,18.6 24,12 C24,5.4 18.66,0 12,0" fill="#455A64" fill-rule="evenodd"></path>
                    </g>
                </g>
            </g>
        </g>
    </g>
</svg>