<?xml version="1.0" encoding="UTF-8"?>
<svg width="24px" height="17px" viewBox="0 0 24 17" version="1.1" xmlns="http://www.w3.org/2000/svg" xmlns:xlink="http://www.w3.org/1999/xlink">
    <!-- Generator: Sketch 53.1 (72631) - https://sketchapp.com -->
    <title>icon/social/spotify</title>
    <desc>Created with Sketch.</desc>
    <g id="symbols" stroke="none" stroke-width="1" fill="none" fill-rule="evenodd">
        <g id="music-button" transform="translate(-16.000000, -303.000000)">
            <g id="youtube">
                <g transform="translate(16.000000, 298.000000)">
                    <g id="icon/social/youtube" transform="translate(0.000000, 2.000000)">
                        <rect id="container" x="0" y="0" width="24" height="24"></rect>
                        <path d="M9.522,14.634958 L9.52125,7.8438708 L16.00575,11.2511219 L9.522,14.634958 Z M23.76,6.66708135 C23.76,6.66708135 23.52525,5.0015995 22.806,4.26818323 C21.89325,3.30514951 20.87025,3.30061759 20.4015,3.24472386 C17.043,3 12.00525,3 12.00525,3 L11.99475,3 C11.99475,3 6.957,3 3.5985,3.24472386 C3.129,3.30061759 2.10675,3.30514951 1.19325,4.26818323 C0.474,5.0015995 0.24,6.66708135 0.24,6.66708135 C0.24,6.66708135 0,8.62336162 0,10.5788866 L0,12.4128049 C0,14.3690852 0.24,16.3246101 0.24,16.3246101 C0.24,16.3246101 0.474,17.990092 1.19325,18.7235082 C2.10675,19.686542 3.306,19.6563291 3.84,19.7567868 C5.76,19.9425956 12,20 12,20 C12,20 17.043,19.9924468 20.4015,19.7477229 C20.87025,19.6910739 21.89325,19.686542 22.806,18.7235082 C23.52525,17.990092 23.76,16.3246101 23.76,16.3246101 C23.76,16.3246101 24,14.3690852 24,12.4128049 L24,10.5788866 C24,8.62336162 23.76,6.66708135 23.76,6.66708135 L23.76,6.66708135 Z" fill="#455A64" fill-rule="evenodd"></path>
                    </g>
                </g>
            </g>
        </g>
    </g>
</svg>